<?xml version="1.0" encoding="UTF-8"?>
<svg xmlns="http://www.w3.org/2000/svg" version="1.1" viewBox="0 0 594.42 103.07">
  <defs>
    <style>
      .cls-1 {
        fill: #fff;
      }

      .cls-2 {
        fill: #f4081f;
      }
    </style>
  </defs>
  <!-- Generator: Adobe Illustrator 28.7.1, SVG Export Plug-In . SVG Version: 1.2.0 Build 142)  -->
  <g>
    <g id="Layer_3">
      <circle class="cls-2" cx="51.48" cy="51.53" r="50.69"/>
    </g>
    <g id="Layer_2">
      <path class="cls-1" d="M51.48,5.76C26.42,5.76,6.03,26.15,6.03,51.21c0,8.67,2.44,16.78,6.67,23.68,2.07,3.37,4.56,6.46,7.41,9.18,1.51,1.45,3.13,2.79,4.83,4.02,2.63,1.9,5.47,3.52,8.48,4.83,5.54,2.41,11.65,3.75,18.07,3.75,11.04,0,21.18-3.96,29.07-10.53,3.68-3.07,6.87-6.71,9.43-10.78,1.81-2.88,3.31-5.98,4.45-9.25.05-.15.11-.3.17-.45.1-.31.2-.62.29-.92,1.33-4.27,2.05-8.81,2.05-13.52,0-25.06-20.39-45.46-45.46-45.46ZM51.48,9.67c22.9,0,41.54,18.63,41.54,41.54,0,.55-.02,1.09-.04,1.64-2.78-2.72-6.71-2.96-7.96-2.96-.62,0-1.21.03-1.8.08-.66-16.94-14.64-30.53-31.74-30.53s-31.78,14.25-31.78,31.78c0,.52.01,1.03.04,1.54-2.59,1.85-4.6,4.56-5.9,8.06-.59,1.59-1.01,3.26-1.26,4.98-1.71-4.54-2.65-9.45-2.65-14.58,0-22.9,18.63-41.54,41.54-41.54ZM90.57,65.28c-3.56,9.16-11.77,9.64-13.42,9.64-1.42,0-2.77-.15-4.07-.42-1.52-.32-2.96-.8-4.35-1.42-3.14-1.4-6.01-3.48-8.82-5.85-1.08-.91-2.15-1.86-3.23-2.82.47-.19.94-.4,1.39-.63,3.29-.58,6.09-1.57,8.59-2.7,2.06-.93,3.92-1.96,5.7-2.94,2.32-1.28,4.47-2.47,6.74-3.27,1.29-.45,2.62-.79,4.04-.95.61-.07,1.24-.11,1.89-.11s4.07.12,5.76,2.47c1.18,1.64,1.3,4.1.35,7.31-.18.57-.37,1.13-.57,1.69ZM29.32,49.88c-2.05,0-3.94.31-5.68.9.23-15.16,12.63-27.43,27.85-27.43s27.56,12.21,27.85,27.32c-3.19.89-5.98,2.43-8.87,4.03-.46.25-.92.51-1.39.76.33-1.36.51-2.78.51-4.25,0-9.98-8.12-18.1-18.1-18.1s-17.54,7.57-18.07,17.08c-1.31-.2-2.68-.31-4.1-.31ZM51.48,37.03c7.82,0,14.18,6.36,14.18,14.18,0,2.45-.62,4.75-1.72,6.76-3.25,1.35-6.97,2.35-11.73,2.44-4.44-3.89-9.15-7.5-14.91-9.31.06-7.77,6.39-14.07,14.18-14.07ZM16.46,73.5c-.51-3.91-.21-7.9,1.06-11.33.58-1.57,1.47-3.26,2.81-4.71.94-1.02,2.1-1.92,3.55-2.57,1.5-.68,3.29-1.09,5.44-1.09,1.51,0,2.95.14,4.32.41,1.51.29,2.95.74,4.33,1.3,5.15,2.1,9.49,5.87,13.94,9.88.27.24.53.48.8.72,1,.9,2,1.81,3.02,2.7,2.9,2.54,5.91,4.96,9.24,6.78,1.38.76,2.82,1.41,4.33,1.93,2.42.83,5.01,1.32,7.85,1.32.59,0,3.27-.08,6.44-1.3-1.57,1.91-3.31,3.67-5.19,5.27-2.78,1.26-5.66,2.06-8.58,2.06-4.35,0-8.17-1.05-11.64-2.6-2.08-.93-4.04-2.05-5.9-3.22-1.64-1.04-3.21-2.12-4.73-3.17-5.13-3.55-9.98-6.91-15.48-6.91-.67,0-1.32.05-1.94.13-1.5.2-2.84.63-3.99,1.28-1.82,1.03-3.15,2.6-3.84,4.63-.56,1.63-.67,3.45-.41,5.34-2.05-2.08-3.87-4.37-5.45-6.84ZM51.48,92.75c-8.75,0-16.88-2.73-23.58-7.37-1.87-3.12-2.79-6.45-1.88-9.11.46-1.36,1.39-2.3,2.77-2.85.91-.36,2-.54,3.29-.54.75,0,1.5.09,2.25.26,3,.66,6.02,2.55,9.32,4.8.55.38,1.11.76,1.68,1.16,1.86,1.29,3.79,2.63,5.85,3.88,5.03,3.08,10.79,5.66,18.01,5.8-5.37,2.54-11.38,3.97-17.71,3.97Z"/>
      <g>
        <path class="cls-1" d="M139.42,74.27c-6.4,0-11.76-2.15-16.07-6.46-4.25-4.36-6.38-9.66-6.38-15.89s2.12-11.64,6.38-15.89,9.66-6.46,16.07-6.46c4.14,0,7.91.99,11.3,2.98,3.4,1.98,5.95,4.65,7.65,7.99l-7.91,4.59c-.96-2.04-2.42-3.64-4.38-4.8-1.96-1.16-4.21-1.74-6.76-1.74-3.74,0-6.88,1.27-9.44,3.83-2.49,2.61-3.74,5.78-3.74,9.52s1.25,6.91,3.74,9.52c2.55,2.55,5.7,3.83,9.44,3.83,2.49,0,4.75-.58,6.76-1.74,2.01-1.16,3.53-2.76,4.55-4.8l7.91,4.5c-1.81,3.4-4.43,6.09-7.86,8.08-3.43,1.98-7.18,2.98-11.26,2.98Z"/>
        <path class="cls-1" d="M174.61,30.66v7.14c2.32-5.27,6.69-7.9,13.09-7.9v9.94c-3.46-.23-6.52.62-9.18,2.55-2.61,1.87-3.91,4.99-3.91,9.35v21.42h-9.18V30.66h9.18Z"/>
        <path class="cls-1" d="M223.15,53.44v-22.78h9.18v42.5h-9.18v-5.44c-2.83,4.36-7.22,6.55-13.17,6.55-4.93,0-8.88-1.57-11.86-4.72-2.98-3.15-4.46-7.41-4.46-12.79v-26.09h9.18v25.16c0,3.17.85,5.61,2.55,7.31,1.7,1.7,4.02,2.55,6.97,2.55,3.34,0,5.98-1.03,7.91-3.1,1.93-2.07,2.89-5.11,2.89-9.14Z"/>
        <path class="cls-1" d="M251.71,22.59c-1.13,1.13-2.49,1.7-4.08,1.7s-2.98-.57-4.17-1.7c-1.13-1.19-1.7-2.58-1.7-4.17s.57-2.95,1.7-4.08c1.13-1.19,2.52-1.79,4.17-1.79s3.03.6,4.17,1.79c1.13,1.13,1.7,2.49,1.7,4.08s-.59,2.98-1.78,4.17ZM252.22,73.16h-9.18V30.66h9.18v42.5Z"/>
        <path class="cls-1" d="M270.83,42.39c0,1.3.68,2.37,2.04,3.19,1.36.82,3.34,1.6,5.95,2.34,1.98.45,3.71.94,5.19,1.45,1.47.51,3.03,1.26,4.67,2.25,1.64.99,2.9,2.29,3.78,3.91.88,1.62,1.29,3.5,1.23,5.65,0,4.08-1.59,7.28-4.76,9.61-3.17,2.32-7.11,3.49-11.82,3.49-4.19,0-7.79-.88-10.79-2.64-3-1.76-5.18-4.19-6.54-7.31l7.91-4.59c1.42,4.08,4.56,6.12,9.43,6.12s7.23-1.59,7.23-4.76c0-2.32-2.69-4.14-8.08-5.44-2.04-.51-3.75-1.02-5.14-1.53-1.39-.51-2.92-1.25-4.59-2.21-1.67-.96-2.95-2.24-3.83-3.83-.88-1.59-1.29-3.43-1.23-5.52,0-3.91,1.47-7.06,4.42-9.44,3-2.38,6.71-3.57,11.13-3.57,3.51,0,6.64.78,9.39,2.34,2.75,1.56,4.86,3.73,6.33,6.5l-7.74,4.33c-1.42-3.23-4.08-4.85-7.99-4.85-1.81,0-3.3.4-4.46,1.19-1.16.79-1.74,1.9-1.74,3.32Z"/>
        <path class="cls-1" d="M341.72,55.82h-33.83c.68,3.17,2.22,5.64,4.63,7.39,2.41,1.76,5.4,2.64,8.97,2.64,4.82,0,8.47-1.76,10.96-5.27l7.57,4.42c-4.14,6.18-10.34,9.27-18.62,9.27-6.86,0-12.44-2.1-16.75-6.29-4.25-4.25-6.38-9.61-6.38-16.07s2.1-11.59,6.29-15.89c4.14-4.31,9.52-6.46,16.15-6.46,6.18,0,11.28,2.18,15.3,6.55,4.02,4.36,6.04,9.66,6.04,15.89,0,1.13-.11,2.41-.34,3.83ZM307.81,48.34h24.99c-.62-3.34-2.03-5.92-4.21-7.73-2.18-1.81-4.83-2.72-7.95-2.72-3.4,0-6.23.94-8.5,2.81-2.27,1.87-3.71,4.42-4.33,7.65Z"/>
        <path class="cls-1" d="M372.49,29.56c4.93,0,8.88,1.57,11.86,4.72,2.98,3.15,4.46,7.41,4.46,12.79v26.09h-9.18v-25.16c0-3.17-.85-5.61-2.55-7.31s-4.02-2.55-6.97-2.55c-3.34,0-5.98,1.03-7.91,3.1-1.93,2.07-2.89,5.12-2.89,9.14v22.78h-9.18V30.66h9.18v5.44c2.83-4.36,7.22-6.55,13.17-6.55Z"/>
        <path class="cls-1" d="M432.33,36.7v-6.04h9.18v42.5h-9.18v-6.12c-3.46,4.82-8.42,7.23-14.88,7.23-5.84,0-10.82-2.15-14.96-6.46-4.14-4.31-6.21-9.6-6.21-15.89s2.07-11.59,6.21-15.89c4.14-4.31,9.12-6.46,14.96-6.46,6.46,0,11.42,2.38,14.88,7.14ZM409.3,61.69c2.55,2.55,5.75,3.82,9.6,3.82s7.05-1.27,9.61-3.82c2.55-2.61,3.82-5.87,3.82-9.78s-1.27-7.14-3.82-9.69c-2.55-2.61-5.75-3.91-9.61-3.91s-7.05,1.3-9.6,3.91c-2.55,2.55-3.83,5.78-3.83,9.69s1.27,7.11,3.83,9.78Z"/>
        <path class="cls-1" d="M475.94,30.66v8.84h-10.54v20.4c0,1.76.4,3.02,1.19,3.78.79.76,1.97,1.19,3.53,1.28s3.5.07,5.82-.04v8.25c-7.03.85-12.07.24-15.13-1.83-3.06-2.07-4.59-5.88-4.59-11.43v-20.4h-7.82v-8.84h7.82v-9.18l9.18-2.72v11.9h10.54Z"/>
        <path class="cls-1" d="M492.94,22.59c-1.13,1.13-2.49,1.7-4.08,1.7s-2.98-.57-4.17-1.7c-1.13-1.19-1.7-2.58-1.7-4.17s.57-2.95,1.7-4.08c1.13-1.19,2.52-1.79,4.17-1.79s3.03.6,4.17,1.79c1.13,1.13,1.7,2.49,1.7,4.08s-.59,2.98-1.78,4.17ZM493.45,73.16h-9.18V30.66h9.18v42.5Z"/>
        <path class="cls-1" d="M524.13,74.27c-6.29,0-11.59-2.15-15.9-6.46-4.36-4.36-6.54-9.66-6.54-15.89s2.18-11.53,6.54-15.89,9.61-6.46,15.9-6.46,11.59,2.15,15.89,6.46,6.55,9.66,6.55,15.89-2.18,11.53-6.55,15.89c-4.31,4.31-9.6,6.46-15.89,6.46ZM510.87,51.91c0,3.85,1.27,7.05,3.83,9.61s5.69,3.82,9.43,3.82,6.88-1.27,9.43-3.82,3.83-5.75,3.83-9.61-1.27-7.05-3.83-9.61-5.69-3.82-9.43-3.82-6.88,1.27-9.43,3.82-3.83,5.75-3.83,9.61Z"/>
        <path class="cls-1" d="M577.25,29.56c4.93,0,8.88,1.57,11.86,4.72,2.98,3.15,4.46,7.41,4.46,12.79v26.09h-9.18v-25.16c0-3.17-.85-5.61-2.55-7.31s-4.02-2.55-6.97-2.55c-3.34,0-5.98,1.03-7.91,3.1-1.93,2.07-2.89,5.12-2.89,9.14v22.78h-9.18V30.66h9.18v5.44c2.83-4.36,7.22-6.55,13.17-6.55Z"/>
      </g>
    </g>
  </g>
</svg>