<svg xmlns="http://www.w3.org/2000/svg" viewBox="0 0 800 212" width="800" height="212" role="img" aria-label="Cruisenation logo">
  <title>Cruisenation logo</title>
  <path fill="#F5081E" fill-rule="evenodd" d="M 1.00 22.00 L 1.00 26.00 L 0.00 27.00 L 1.00 28.00 L 1.00 29.00 L 0.00 30.00 L 0.00 187.00 L 1.00 188.00 L 1.00 191.00 L 2.00 192.00 L 2.00 194.00 L 3.00 195.00 L 5.00 200.00 L 13.00 208.00 L 14.00 208.00 L 19.00 211.00 L 781.00 211.00 L 782.00 210.00 L 787.00 208.00 L 793.00 203.00 L 793.00 202.00 L 796.00 199.00 L 796.00 198.00 L 798.00 195.00 L 798.00 193.00 L 799.00 192.00 L 799.00 21.00 L 798.00 20.00 L 798.00 18.00 L 797.00 17.00 L 796.00 14.00 L 790.00 7.00 L 789.00 7.00 L 787.00 5.00 L 786.00 5.00 L 781.00 2.00 L 778.00 2.00 L 777.00 1.00 L 23.00 1.00 L 22.00 2.00 L 19.00 2.00 L 18.00 3.00 L 13.00 5.00 L 5.00 13.00 L 5.00 14.00 L 3.00 16.00 L 3.00 18.00 L 2.00 19.00 L 2.00 21.00 Z"/>
  <path fill="#FFFFFF" fill-rule="evenodd" d="M 620.00 82.00 L 618.00 84.00 L 619.00 85.00 L 618.00 86.00 L 618.00 128.00 L 619.00 129.00 L 619.00 132.00 L 628.00 132.00 L 629.00 131.00 L 629.00 85.00 L 627.00 82.00 L 626.00 83.00 L 624.00 82.00 L 621.00 83.00 Z M 335.00 82.00 L 333.00 84.00 L 334.00 85.00 L 334.00 127.00 L 333.00 128.00 L 334.00 129.00 L 334.00 132.00 L 343.00 132.00 L 343.00 83.00 L 336.00 83.00 Z M 276.00 82.00 L 275.00 83.00 L 275.00 118.00 L 276.00 119.00 L 276.00 122.00 L 279.00 126.00 L 279.00 127.00 L 283.00 131.00 L 287.00 132.00 L 288.00 133.00 L 300.00 133.00 L 301.00 132.00 L 303.00 132.00 L 309.00 127.00 L 310.00 128.00 L 310.00 132.00 L 320.00 132.00 L 320.00 83.00 L 319.00 82.00 L 311.00 82.00 L 310.00 83.00 L 310.00 113.00 L 309.00 114.00 L 308.00 118.00 L 303.00 123.00 L 301.00 123.00 L 300.00 124.00 L 294.00 124.00 L 293.00 123.00 L 291.00 123.00 L 286.00 118.00 L 286.00 116.00 L 285.00 115.00 L 285.00 83.00 L 284.00 82.00 L 282.00 83.00 L 280.00 82.00 L 277.00 83.00 Z M 267.00 82.00 L 262.00 82.00 L 256.00 85.00 L 253.00 89.00 L 252.00 88.00 L 252.00 83.00 L 249.00 83.00 L 248.00 82.00 L 246.00 83.00 L 244.00 82.00 L 242.00 83.00 L 242.00 132.00 L 252.00 132.00 L 252.00 102.00 L 254.00 98.00 L 259.00 94.00 L 261.00 94.00 L 262.00 93.00 L 267.00 93.00 Z M 739.00 84.00 L 735.00 82.00 L 725.00 81.00 L 724.00 82.00 L 721.00 82.00 L 717.00 84.00 L 713.00 88.00 L 712.00 87.00 L 712.00 83.00 L 711.00 82.00 L 703.00 82.00 L 702.00 83.00 L 702.00 132.00 L 712.00 132.00 L 712.00 102.00 L 713.00 101.00 L 713.00 98.00 L 715.00 96.00 L 715.00 95.00 L 717.00 93.00 L 721.00 91.00 L 729.00 91.00 L 733.00 93.00 L 735.00 95.00 L 736.00 97.00 L 736.00 100.00 L 737.00 101.00 L 737.00 132.00 L 747.00 132.00 L 747.00 97.00 L 746.00 96.00 L 746.00 93.00 L 744.00 89.00 Z M 657.00 82.00 L 656.00 83.00 L 652.00 84.00 L 649.00 87.00 L 648.00 87.00 L 642.00 94.00 L 641.00 98.00 L 640.00 99.00 L 640.00 101.00 L 639.00 102.00 L 639.00 112.00 L 640.00 113.00 L 640.00 116.00 L 643.00 122.00 L 651.00 130.00 L 655.00 132.00 L 657.00 132.00 L 658.00 133.00 L 672.00 133.00 L 682.00 128.00 L 688.00 121.00 L 690.00 117.00 L 690.00 115.00 L 691.00 114.00 L 691.00 101.00 L 690.00 100.00 L 689.00 95.00 L 687.00 93.00 L 687.00 92.00 L 678.00 84.00 L 674.00 83.00 L 673.00 82.00 L 669.00 82.00 L 668.00 81.00 L 662.00 81.00 L 661.00 82.00 Z M 659.00 92.00 L 661.00 92.00 L 662.00 91.00 L 668.00 91.00 L 669.00 92.00 L 671.00 92.00 L 678.00 97.00 L 681.00 103.00 L 681.00 112.00 L 679.00 116.00 L 671.00 123.00 L 665.00 124.00 L 664.00 123.00 L 660.00 123.00 L 656.00 121.00 L 652.00 117.00 L 649.00 111.00 L 649.00 104.00 L 650.00 103.00 L 651.00 99.00 L 657.00 93.00 Z M 520.00 90.00 L 515.00 100.00 L 514.00 110.00 L 515.00 111.00 L 515.00 115.00 L 516.00 116.00 L 517.00 120.00 L 519.00 122.00 L 519.00 123.00 L 526.00 130.00 L 530.00 132.00 L 532.00 132.00 L 533.00 133.00 L 545.00 133.00 L 546.00 132.00 L 548.00 132.00 L 552.00 130.00 L 556.00 126.00 L 557.00 127.00 L 557.00 132.00 L 567.00 132.00 L 567.00 83.00 L 566.00 82.00 L 558.00 82.00 L 557.00 83.00 L 557.00 88.00 L 556.00 89.00 L 551.00 84.00 L 547.00 82.00 L 544.00 82.00 L 543.00 81.00 L 536.00 81.00 L 535.00 82.00 L 532.00 82.00 L 531.00 83.00 L 527.00 84.00 Z M 534.00 92.00 L 536.00 92.00 L 537.00 91.00 L 545.00 91.00 L 551.00 94.00 L 556.00 100.00 L 556.00 102.00 L 557.00 103.00 L 557.00 111.00 L 556.00 112.00 L 556.00 114.00 L 555.00 116.00 L 549.00 122.00 L 547.00 123.00 L 544.00 123.00 L 543.00 124.00 L 538.00 124.00 L 537.00 123.00 L 535.00 123.00 L 531.00 120.00 L 530.00 120.00 L 526.00 115.00 L 526.00 113.00 L 525.00 112.00 L 525.00 102.00 L 527.00 98.00 L 532.00 93.00 Z M 497.00 84.00 L 493.00 82.00 L 490.00 82.00 L 489.00 81.00 L 484.00 81.00 L 483.00 82.00 L 479.00 82.00 L 475.00 84.00 L 471.00 88.00 L 470.00 87.00 L 470.00 83.00 L 460.00 83.00 L 460.00 132.00 L 470.00 132.00 L 470.00 102.00 L 471.00 101.00 L 471.00 98.00 L 473.00 96.00 L 473.00 95.00 L 475.00 93.00 L 479.00 91.00 L 487.00 91.00 L 491.00 93.00 L 494.00 97.00 L 494.00 99.00 L 495.00 100.00 L 495.00 132.00 L 505.00 132.00 L 505.00 96.00 L 504.00 95.00 L 504.00 93.00 L 502.00 89.00 Z M 416.00 82.00 L 410.00 85.00 L 403.00 92.00 L 403.00 93.00 L 400.00 97.00 L 400.00 100.00 L 399.00 101.00 L 399.00 114.00 L 400.00 115.00 L 400.00 117.00 L 403.00 123.00 L 409.00 129.00 L 415.00 132.00 L 417.00 132.00 L 418.00 133.00 L 433.00 133.00 L 434.00 132.00 L 436.00 132.00 L 442.00 129.00 L 447.00 124.00 L 447.00 123.00 L 439.00 118.00 L 433.00 123.00 L 431.00 123.00 L 430.00 124.00 L 421.00 124.00 L 420.00 123.00 L 416.00 122.00 L 411.00 117.00 L 410.00 113.00 L 412.00 111.00 L 413.00 112.00 L 415.00 111.00 L 442.00 111.00 L 443.00 112.00 L 448.00 112.00 L 450.00 109.00 L 450.00 106.00 L 449.00 105.00 L 449.00 99.00 L 445.00 91.00 L 439.00 85.00 L 433.00 82.00 L 430.00 82.00 L 429.00 81.00 L 421.00 81.00 L 420.00 82.00 Z M 409.00 102.00 L 412.00 96.00 L 414.00 94.00 L 415.00 94.00 L 419.00 91.00 L 423.00 91.00 L 424.00 90.00 L 432.00 92.00 L 438.00 98.00 L 439.00 100.00 L 439.00 102.00 L 437.00 104.00 L 433.00 104.00 L 432.00 103.00 L 431.00 104.00 L 413.00 104.00 Z M 366.00 82.00 L 360.00 85.00 L 356.00 90.00 L 356.00 92.00 L 355.00 93.00 L 355.00 99.00 L 356.00 100.00 L 356.00 102.00 L 360.00 107.00 L 366.00 110.00 L 378.00 113.00 L 382.00 117.00 L 382.00 120.00 L 378.00 124.00 L 369.00 124.00 L 367.00 123.00 L 362.00 118.00 L 362.00 117.00 L 353.00 122.00 L 355.00 126.00 L 358.00 129.00 L 359.00 129.00 L 363.00 132.00 L 366.00 132.00 L 367.00 133.00 L 380.00 133.00 L 381.00 132.00 L 385.00 131.00 L 390.00 127.00 L 392.00 123.00 L 392.00 121.00 L 393.00 120.00 L 392.00 113.00 L 391.00 111.00 L 387.00 107.00 L 381.00 104.00 L 378.00 104.00 L 377.00 103.00 L 371.00 102.00 L 369.00 101.00 L 365.00 96.00 L 369.00 91.00 L 371.00 91.00 L 372.00 90.00 L 374.00 91.00 L 378.00 91.00 L 383.00 96.00 L 389.00 93.00 L 391.00 91.00 L 391.00 90.00 L 385.00 84.00 L 381.00 83.00 L 380.00 82.00 L 377.00 82.00 L 376.00 81.00 Z M 202.00 82.00 L 193.00 87.00 L 188.00 93.00 L 186.00 97.00 L 186.00 99.00 L 185.00 100.00 L 185.00 115.00 L 189.00 123.00 L 198.00 131.00 L 200.00 131.00 L 204.00 133.00 L 217.00 133.00 L 218.00 132.00 L 220.00 132.00 L 226.00 129.00 L 232.00 123.00 L 233.00 121.00 L 229.00 119.00 L 227.00 117.00 L 224.00 116.00 L 218.00 122.00 L 216.00 123.00 L 212.00 123.00 L 211.00 124.00 L 210.00 123.00 L 205.00 123.00 L 201.00 120.00 L 200.00 120.00 L 195.00 113.00 L 195.00 102.00 L 197.00 98.00 L 204.00 92.00 L 207.00 92.00 L 208.00 91.00 L 213.00 91.00 L 214.00 92.00 L 217.00 92.00 L 219.00 94.00 L 220.00 94.00 L 224.00 99.00 L 228.00 96.00 L 231.00 95.00 L 232.00 94.00 L 232.00 92.00 L 225.00 85.00 L 221.00 83.00 L 215.00 82.00 L 214.00 81.00 L 207.00 81.00 L 206.00 82.00 Z M 593.00 69.00 L 592.00 70.00 L 589.00 70.00 L 585.00 72.00 L 585.00 81.00 L 584.00 82.00 L 577.00 82.00 L 576.00 83.00 L 576.00 92.00 L 584.00 92.00 L 585.00 93.00 L 585.00 119.00 L 586.00 120.00 L 586.00 124.00 L 588.00 128.00 L 590.00 130.00 L 594.00 132.00 L 603.00 133.00 L 604.00 132.00 L 608.00 132.00 L 608.00 123.00 L 599.00 123.00 L 596.00 120.00 L 596.00 117.00 L 595.00 116.00 L 595.00 94.00 L 597.00 92.00 L 608.00 92.00 L 608.00 83.00 L 599.00 83.00 L 597.00 82.00 L 595.00 80.00 L 595.00 71.00 L 596.00 70.00 L 595.00 69.00 Z M 622.00 61.00 L 617.00 65.00 L 617.00 70.00 L 618.00 72.00 L 621.00 74.00 L 626.00 74.00 L 628.00 73.00 L 630.00 70.00 L 630.00 65.00 L 627.00 62.00 L 625.00 61.00 Z M 337.00 61.00 L 332.00 65.00 L 332.00 70.00 L 333.00 72.00 L 336.00 74.00 L 341.00 74.00 L 343.00 73.00 L 343.00 72.00 L 345.00 70.00 L 345.00 66.00 L 342.00 62.00 L 340.00 61.00 Z M 102.00 53.00 L 101.00 54.00 L 95.00 54.00 L 94.00 55.00 L 88.00 56.00 L 78.00 61.00 L 68.00 69.00 L 68.00 70.00 L 61.00 78.00 L 57.00 86.00 L 57.00 88.00 L 56.00 89.00 L 56.00 91.00 L 54.00 95.00 L 53.00 110.00 L 54.00 111.00 L 54.00 117.00 L 55.00 118.00 L 55.00 121.00 L 56.00 122.00 L 57.00 127.00 L 61.00 135.00 L 69.00 145.00 L 70.00 145.00 L 78.00 152.00 L 88.00 157.00 L 94.00 158.00 L 95.00 159.00 L 100.00 159.00 L 101.00 160.00 L 111.00 160.00 L 112.00 159.00 L 118.00 159.00 L 119.00 158.00 L 125.00 157.00 L 137.00 151.00 L 148.00 141.00 L 148.00 140.00 L 153.00 134.00 L 155.00 130.00 L 155.00 128.00 L 157.00 125.00 L 158.00 120.00 L 159.00 119.00 L 159.00 114.00 L 160.00 113.00 L 160.00 99.00 L 159.00 98.00 L 159.00 94.00 L 158.00 93.00 L 156.00 85.00 L 153.00 79.00 L 148.00 73.00 L 148.00 72.00 L 137.00 62.00 L 134.00 61.00 L 130.00 58.00 L 128.00 58.00 L 122.00 55.00 L 119.00 55.00 L 118.00 54.00 L 113.00 54.00 L 112.00 53.00 Z M 76.00 136.00 L 80.00 132.00 L 87.00 132.00 L 88.00 133.00 L 92.00 134.00 L 106.00 144.00 L 114.00 148.00 L 116.00 148.00 L 120.00 150.00 L 125.00 150.00 L 126.00 151.00 L 124.00 153.00 L 122.00 153.00 L 118.00 155.00 L 114.00 155.00 L 113.00 156.00 L 101.00 156.00 L 100.00 155.00 L 92.00 154.00 L 81.00 149.00 L 77.00 145.00 L 77.00 143.00 L 76.00 142.00 Z M 155.00 115.00 L 154.00 116.00 L 154.00 122.00 L 150.00 129.00 L 145.00 133.00 L 141.00 134.00 L 140.00 135.00 L 134.00 135.00 L 133.00 134.00 L 127.00 133.00 L 123.00 131.00 L 120.00 128.00 L 119.00 128.00 L 113.00 122.00 L 117.00 120.00 L 123.00 119.00 L 129.00 116.00 L 131.00 114.00 L 137.00 111.00 L 142.00 110.00 L 143.00 109.00 L 148.00 109.00 L 149.00 110.00 L 151.00 110.00 Z M 65.00 122.00 L 66.00 121.00 L 67.00 117.00 L 71.00 112.00 L 72.00 112.00 L 74.00 110.00 L 77.00 110.00 L 78.00 109.00 L 84.00 109.00 L 85.00 110.00 L 91.00 111.00 L 98.00 115.00 L 120.00 134.00 L 126.00 137.00 L 128.00 137.00 L 129.00 138.00 L 133.00 138.00 L 134.00 139.00 L 140.00 139.00 L 141.00 138.00 L 143.00 138.00 L 144.00 139.00 L 139.00 144.00 L 135.00 146.00 L 131.00 146.00 L 130.00 147.00 L 127.00 147.00 L 126.00 146.00 L 121.00 146.00 L 120.00 145.00 L 117.00 145.00 L 109.00 141.00 L 107.00 139.00 L 106.00 139.00 L 104.00 137.00 L 103.00 137.00 L 101.00 135.00 L 100.00 135.00 L 98.00 133.00 L 91.00 129.00 L 89.00 129.00 L 88.00 128.00 L 79.00 128.00 L 77.00 129.00 L 73.00 133.00 L 72.00 135.00 L 72.00 139.00 L 71.00 140.00 L 66.00 135.00 L 65.00 133.00 L 65.00 129.00 L 64.00 128.00 L 65.00 127.00 Z M 90.00 101.00 L 93.00 97.00 L 93.00 96.00 L 96.00 93.00 L 97.00 93.00 L 101.00 90.00 L 108.00 89.00 L 109.00 90.00 L 112.00 90.00 L 116.00 92.00 L 121.00 97.00 L 123.00 101.00 L 123.00 103.00 L 124.00 104.00 L 124.00 109.00 L 121.00 115.00 L 117.00 116.00 L 116.00 117.00 L 111.00 117.00 L 110.00 118.00 L 108.00 118.00 L 98.00 110.00 L 91.00 107.00 L 90.00 106.00 Z M 73.00 103.00 L 74.00 102.00 L 75.00 95.00 L 77.00 91.00 L 81.00 86.00 L 81.00 85.00 L 89.00 78.00 L 95.00 75.00 L 97.00 75.00 L 98.00 74.00 L 102.00 74.00 L 103.00 73.00 L 111.00 73.00 L 112.00 74.00 L 115.00 74.00 L 127.00 80.00 L 136.00 90.00 L 136.00 92.00 L 138.00 95.00 L 138.00 97.00 L 140.00 101.00 L 140.00 105.00 L 138.00 107.00 L 136.00 107.00 L 128.00 111.00 L 127.00 110.00 L 128.00 109.00 L 128.00 104.00 L 127.00 103.00 L 126.00 97.00 L 119.00 89.00 L 113.00 86.00 L 100.00 86.00 L 93.00 90.00 L 90.00 93.00 L 90.00 94.00 L 87.00 98.00 L 86.00 104.00 L 85.00 105.00 L 78.00 105.00 L 77.00 106.00 L 74.00 106.00 L 73.00 105.00 Z M 154.00 91.00 L 155.00 99.00 L 156.00 100.00 L 156.00 107.00 L 155.00 108.00 L 152.00 106.00 L 149.00 106.00 L 148.00 105.00 L 145.00 105.00 L 143.00 102.00 L 143.00 97.00 L 142.00 96.00 L 142.00 94.00 L 141.00 93.00 L 140.00 89.00 L 138.00 87.00 L 136.00 83.00 L 127.00 75.00 L 119.00 71.00 L 117.00 71.00 L 116.00 70.00 L 112.00 70.00 L 111.00 69.00 L 103.00 69.00 L 102.00 70.00 L 94.00 71.00 L 86.00 75.00 L 83.00 78.00 L 82.00 78.00 L 75.00 86.00 L 72.00 92.00 L 71.00 97.00 L 70.00 98.00 L 70.00 106.00 L 64.00 114.00 L 62.00 118.00 L 62.00 121.00 L 61.00 122.00 L 59.00 121.00 L 59.00 118.00 L 58.00 117.00 L 58.00 112.00 L 57.00 111.00 L 57.00 102.00 L 58.00 101.00 L 58.00 96.00 L 59.00 95.00 L 59.00 92.00 L 64.00 81.00 L 71.00 73.00 L 71.00 72.00 L 73.00 71.00 L 78.00 66.00 L 89.00 60.00 L 91.00 60.00 L 95.00 58.00 L 100.00 58.00 L 101.00 57.00 L 113.00 57.00 L 114.00 58.00 L 118.00 58.00 L 119.00 59.00 L 127.00 61.00 L 129.00 63.00 L 132.00 64.00 L 138.00 69.00 L 139.00 69.00 L 144.00 74.00 L 144.00 75.00 L 148.00 79.00 L 149.00 82.00 L 151.00 84.00 L 152.00 88.00 Z"/>
</svg>
