<svg xmlns="http://www.w3.org/2000/svg" viewBox="0 0 665 252" width="665" height="252">
  <path d="M 592.00 172.00 L 586.00 172.00 L 581.00 175.00 L 579.00 174.00 L 579.00 172.00 L 571.00 172.00 L 571.00 208.00 L 579.00 208.00 L 580.00 185.00 L 585.00 180.00 L 592.00 179.00 Z M 529.00 172.00 L 529.00 196.00 L 531.00 202.00 L 535.00 206.00 L 540.00 208.00 L 549.00 208.00 L 554.00 205.00 L 556.00 206.00 L 556.00 208.00 L 564.00 208.00 L 564.00 172.00 L 556.00 172.00 L 556.00 192.00 L 554.00 197.00 L 548.00 201.00 L 541.00 200.00 L 538.00 196.00 L 537.00 172.00 Z M 464.00 172.00 L 464.00 208.00 L 472.00 208.00 L 472.00 188.00 L 474.00 183.00 L 479.00 179.00 L 486.00 179.00 L 491.00 185.00 L 491.00 208.00 L 499.00 208.00 L 499.00 181.00 L 497.00 177.00 L 490.00 172.00 L 479.00 172.00 L 474.00 175.00 L 472.00 174.00 L 472.00 172.00 Z M 431.00 174.00 L 426.00 179.00 L 423.00 186.00 L 423.00 194.00 L 426.00 201.00 L 432.00 206.00 L 437.00 208.00 L 448.00 208.00 L 455.00 205.00 L 457.00 202.00 L 453.00 197.00 L 447.00 201.00 L 439.00 201.00 L 433.00 197.00 L 432.00 193.00 L 433.00 192.00 L 459.00 192.00 L 460.00 189.00 L 457.00 179.00 L 452.00 174.00 L 447.00 172.00 L 436.00 172.00 Z M 432.00 184.00 L 435.00 180.00 L 439.00 178.00 L 444.00 178.00 L 450.00 182.00 L 451.00 186.00 L 450.00 187.00 L 433.00 187.00 Z M 593.00 183.00 L 592.00 192.00 L 595.00 200.00 L 601.00 206.00 L 607.00 208.00 L 617.00 208.00 L 624.00 205.00 L 626.00 202.00 L 622.00 197.00 L 616.00 201.00 L 608.00 201.00 L 601.00 195.00 L 602.00 192.00 L 629.00 192.00 L 630.00 186.00 L 635.00 191.00 L 650.00 194.00 L 653.00 196.00 L 653.00 199.00 L 650.00 201.00 L 640.00 201.00 L 633.00 198.00 L 630.00 204.00 L 635.00 207.00 L 651.00 208.00 L 656.00 206.00 L 661.00 200.00 L 661.00 194.00 L 657.00 189.00 L 642.00 186.00 L 639.00 183.00 L 639.00 181.00 L 644.00 178.00 L 650.00 178.00 L 657.00 181.00 L 660.00 174.00 L 647.00 171.00 L 637.00 173.00 L 633.00 176.00 L 630.00 186.00 L 628.00 185.00 L 626.00 179.00 L 621.00 174.00 L 611.00 171.00 L 602.00 173.00 L 595.00 179.00 Z M 601.00 184.00 L 606.00 179.00 L 613.00 178.00 L 616.00 179.00 L 620.00 183.00 L 621.00 186.00 L 620.00 187.00 L 602.00 187.00 Z M 507.00 164.00 L 507.00 171.00 L 501.00 172.00 L 501.00 179.00 L 507.00 180.00 L 507.00 200.00 L 509.00 204.00 L 515.00 208.00 L 526.00 207.00 L 527.00 204.00 L 525.00 200.00 L 518.00 201.00 L 515.00 197.00 L 515.00 180.00 L 516.00 179.00 L 525.00 179.00 L 525.00 172.00 L 516.00 172.00 L 515.00 171.00 L 515.00 164.00 Z M 317.00 161.00 L 299.00 201.00 L 297.00 208.00 L 305.00 208.00 L 311.00 197.00 L 333.00 197.00 L 339.00 208.00 L 347.00 208.00 L 326.00 161.00 Z M 321.00 172.00 L 325.00 176.00 L 330.00 188.00 L 329.00 190.00 L 315.00 190.00 L 314.00 189.00 Z M 347.00 181.00 L 346.00 196.00 L 351.00 204.00 L 359.00 208.00 L 368.00 208.00 L 374.00 205.00 L 376.00 206.00 L 376.00 208.00 L 383.00 208.00 L 384.00 207.00 L 384.00 174.00 L 386.00 173.00 L 401.00 208.00 L 409.00 208.00 L 425.00 172.00 L 417.00 172.00 L 406.00 196.00 L 404.00 195.00 L 395.00 173.00 L 384.00 171.00 L 384.00 159.00 L 375.00 159.00 L 375.00 173.00 L 374.00 174.00 L 369.00 172.00 L 358.00 172.00 L 352.00 175.00 Z M 361.00 179.00 L 369.00 179.00 L 373.00 182.00 L 375.00 186.00 L 375.00 194.00 L 368.00 201.00 L 362.00 201.00 L 358.00 199.00 L 354.00 193.00 L 354.00 186.00 Z M 461.00 115.00 L 461.00 150.00 L 469.00 150.00 L 469.00 129.00 L 473.00 123.00 L 478.00 121.00 L 483.00 122.00 L 487.00 126.00 L 488.00 150.00 L 496.00 150.00 L 496.00 126.00 L 493.00 119.00 L 484.00 114.00 L 478.00 114.00 L 471.00 117.00 L 469.00 115.00 Z M 420.00 120.00 L 417.00 126.00 L 416.00 135.00 L 418.00 142.00 L 422.00 147.00 L 431.00 151.00 L 438.00 151.00 L 444.00 148.00 L 446.00 150.00 L 454.00 150.00 L 454.00 115.00 L 446.00 115.00 L 444.00 117.00 L 437.00 114.00 L 431.00 114.00 L 425.00 116.00 Z M 433.00 121.00 L 440.00 122.00 L 446.00 129.00 L 445.00 138.00 L 440.00 143.00 L 433.00 144.00 L 429.00 142.00 L 425.00 137.00 L 425.00 128.00 L 429.00 123.00 Z M 372.00 114.00 L 365.00 115.00 L 361.00 118.00 L 359.00 117.00 L 359.00 115.00 L 351.00 115.00 L 351.00 150.00 L 360.00 150.00 L 360.00 128.00 L 363.00 124.00 L 367.00 122.00 L 372.00 122.00 Z M 304.00 103.00 L 303.00 104.00 L 303.00 136.00 L 307.00 145.00 L 312.00 149.00 L 318.00 151.00 L 328.00 151.00 L 336.00 148.00 L 341.00 143.00 L 344.00 134.00 L 344.00 104.00 L 343.00 103.00 L 336.00 103.00 L 335.00 104.00 L 335.00 135.00 L 334.00 138.00 L 328.00 143.00 L 318.00 143.00 L 313.00 138.00 L 311.00 132.00 L 311.00 103.00 Z M 375.00 102.00 L 375.00 149.00 L 376.00 150.00 L 383.00 150.00 L 384.00 148.00 L 386.00 148.00 L 392.00 151.00 L 399.00 151.00 L 406.00 148.00 L 411.00 143.00 L 413.00 138.00 L 413.00 126.00 L 411.00 122.00 L 406.00 117.00 L 398.00 114.00 L 392.00 114.00 L 385.00 117.00 L 384.00 116.00 L 384.00 102.00 Z M 392.00 121.00 L 399.00 122.00 L 405.00 129.00 L 404.00 138.00 L 399.00 143.00 L 392.00 144.00 L 388.00 142.00 L 384.00 137.00 L 384.00 128.00 L 388.00 123.00 Z M 489.00 56.00 L 488.00 57.00 L 488.00 92.00 L 496.00 92.00 L 496.00 56.00 Z M 473.00 57.00 L 462.00 56.00 L 456.00 59.00 L 453.00 56.00 L 446.00 57.00 L 446.00 105.00 L 454.00 105.00 L 454.00 91.00 L 455.00 90.00 L 463.00 93.00 L 469.00 93.00 L 475.00 91.00 L 481.00 86.00 L 484.00 79.00 L 484.00 70.00 L 481.00 63.00 Z M 462.00 63.00 L 470.00 64.00 L 474.00 68.00 L 476.00 73.00 L 474.00 81.00 L 471.00 84.00 L 466.00 86.00 L 459.00 84.00 L 454.00 77.00 L 455.00 69.00 Z M 413.00 59.00 L 408.00 64.00 L 405.00 72.00 L 405.00 77.00 L 408.00 85.00 L 415.00 91.00 L 422.00 93.00 L 428.00 93.00 L 438.00 89.00 L 439.00 86.00 L 435.00 82.00 L 431.00 85.00 L 423.00 86.00 L 418.00 84.00 L 414.00 78.00 L 415.00 77.00 L 442.00 77.00 L 442.00 71.00 L 439.00 63.00 L 435.00 59.00 L 428.00 56.00 L 420.00 56.00 Z M 414.00 69.00 L 420.00 63.00 L 427.00 63.00 L 433.00 68.00 L 434.00 71.00 L 433.00 72.00 L 415.00 72.00 Z M 405.00 56.00 L 397.00 57.00 L 395.00 59.00 L 393.00 59.00 L 391.00 56.00 L 384.00 57.00 L 384.00 92.00 L 392.00 92.00 L 392.00 73.00 L 393.00 70.00 L 397.00 65.00 L 405.00 64.00 Z M 318.00 56.00 L 318.00 92.00 L 326.00 92.00 L 326.00 70.00 L 331.00 64.00 L 338.00 63.00 L 344.00 68.00 L 345.00 92.00 L 353.00 92.00 L 353.00 68.00 L 350.00 61.00 L 347.00 58.00 L 342.00 56.00 L 334.00 56.00 L 328.00 59.00 L 326.00 59.00 L 325.00 56.00 Z M 361.00 48.00 L 361.00 56.00 L 355.00 57.00 L 355.00 63.00 L 361.00 64.00 L 361.00 85.00 L 363.00 89.00 L 367.00 92.00 L 371.00 93.00 L 381.00 91.00 L 379.00 85.00 L 372.00 86.00 L 369.00 83.00 L 369.00 64.00 L 370.00 63.00 L 379.00 63.00 L 379.00 57.00 L 370.00 57.00 L 369.00 56.00 L 369.00 48.00 Z M 303.00 45.00 L 303.00 92.00 L 311.00 92.00 L 311.00 45.00 Z M 539.00 43.00 L 530.00 43.00 L 530.00 58.00 L 529.00 59.00 L 522.00 56.00 L 515.00 56.00 L 509.00 58.00 L 503.00 64.00 L 501.00 68.00 L 501.00 80.00 L 503.00 85.00 L 508.00 90.00 L 516.00 93.00 L 525.00 92.00 L 529.00 89.00 L 531.00 90.00 L 531.00 92.00 L 539.00 92.00 Z M 517.00 63.00 L 522.00 63.00 L 526.00 65.00 L 530.00 70.00 L 530.00 79.00 L 526.00 84.00 L 521.00 86.00 L 515.00 85.00 L 509.00 78.00 L 509.00 71.00 L 511.00 67.00 Z M 490.00 41.00 L 487.00 44.00 L 487.00 48.00 L 491.00 51.00 L 496.00 50.00 L 498.00 46.00 L 497.00 43.00 L 495.00 41.00 Z M 196.00 6.00 L 194.00 7.00 L 191.00 16.00 L 185.00 42.00 L 181.00 69.00 L 179.00 102.00 L 174.00 104.00 L 174.00 116.00 L 179.00 117.00 L 179.00 125.00 L 177.00 127.00 L 171.00 127.00 L 169.00 129.00 L 169.00 139.00 L 163.00 145.00 L 157.00 155.00 L 154.00 165.00 L 154.00 184.00 L 147.00 186.00 L 147.00 197.00 L 146.00 198.00 L 135.00 198.00 L 133.00 196.00 L 133.00 147.00 L 144.00 138.00 L 147.00 131.00 L 147.00 127.00 L 135.00 127.00 L 133.00 125.00 L 133.00 85.00 L 132.00 84.00 L 130.00 60.00 L 127.00 52.00 L 126.00 52.00 L 124.00 58.00 L 122.00 70.00 L 122.00 79.00 L 121.00 80.00 L 120.00 125.00 L 118.00 127.00 L 107.00 127.00 L 107.00 132.00 L 109.00 137.00 L 112.00 141.00 L 120.00 146.00 L 120.00 197.00 L 119.00 198.00 L 107.00 198.00 L 106.00 197.00 L 106.00 186.00 L 100.00 184.00 L 100.00 172.00 L 98.00 167.00 L 92.00 158.00 L 81.00 148.00 L 65.00 141.00 L 45.00 140.00 L 34.00 143.00 L 22.00 149.00 L 20.00 145.00 L 20.00 138.00 L 19.00 137.00 L 20.00 108.00 L 22.00 99.00 L 29.00 80.00 L 40.00 62.00 L 58.00 43.00 L 74.00 32.00 L 89.00 25.00 L 113.00 19.00 L 146.00 20.00 L 155.00 22.00 L 176.00 30.00 L 179.00 17.00 L 159.00 9.00 L 135.00 5.00 L 118.00 5.00 L 95.00 9.00 L 78.00 15.00 L 54.00 29.00 L 33.00 49.00 L 23.00 63.00 L 12.00 86.00 L 6.00 111.00 L 6.00 123.00 L 5.00 124.00 L 6.00 142.00 L 10.00 161.00 L 20.00 185.00 L 32.00 203.00 L 50.00 221.00 L 66.00 232.00 L 83.00 240.00 L 95.00 244.00 L 110.00 247.00 L 134.00 248.00 L 162.00 243.00 L 182.00 235.00 L 207.00 218.00 L 223.00 201.00 L 233.00 186.00 L 243.00 163.00 L 248.00 139.00 L 248.00 114.00 L 245.00 97.00 L 239.00 79.00 L 232.00 65.00 L 220.00 48.00 L 218.00 48.00 L 221.00 65.00 L 221.00 73.00 L 228.00 88.00 L 234.00 111.00 L 235.00 133.00 L 234.00 134.00 L 233.00 148.00 L 231.00 149.00 L 223.00 140.00 L 222.00 129.00 L 220.00 127.00 L 214.00 127.00 L 212.00 125.00 L 212.00 117.00 L 217.00 116.00 L 218.00 114.00 L 218.00 105.00 L 216.00 103.00 L 212.00 102.00 L 212.00 88.00 L 211.00 87.00 L 211.00 77.00 L 210.00 76.00 L 210.00 67.00 L 207.00 46.00 L 201.00 19.00 Z" fill="#FD2829" fill-rule="evenodd"/>
</svg>