<svg xmlns="http://www.w3.org/2000/svg" viewBox="0 0 560 162" width="560" height="162">
  <path d="M 17.00 98.00 L 16.00 100.00 L 19.00 106.00 L 21.00 105.00 L 27.00 105.00 L 31.00 109.00 L 32.00 111.00 L 32.00 115.00 L 29.00 119.00 L 32.00 122.00 L 36.00 124.00 L 40.00 116.00 L 40.00 110.00 L 37.00 103.00 L 34.00 100.00 L 28.00 97.00 L 20.00 97.00 Z M 13.00 82.00 L 12.00 83.00 L 13.00 91.00 L 18.00 89.00 L 30.00 89.00 L 37.00 92.00 L 44.00 99.00 L 48.00 107.00 L 48.00 119.00 L 43.00 129.00 L 48.00 132.00 L 50.00 132.00 L 52.00 130.00 L 56.00 120.00 L 56.00 106.00 L 52.00 96.00 L 44.00 87.00 L 37.00 83.00 L 31.00 81.00 L 17.00 81.00 L 16.00 82.00 Z M 32.00 28.00 L 27.00 33.00 L 33.00 37.00 L 40.00 45.00 L 44.00 54.00 L 45.00 65.00 L 43.00 68.00 L 38.00 66.00 L 38.00 57.00 L 34.00 48.00 L 30.00 43.00 L 26.00 40.00 L 22.00 39.00 L 19.00 44.00 L 19.00 46.00 L 22.00 47.00 L 27.00 52.00 L 30.00 58.00 L 30.00 63.00 L 29.00 64.00 L 24.00 64.00 L 23.00 63.00 L 23.00 58.00 L 19.00 53.00 L 15.00 52.00 L 13.00 58.00 L 15.00 61.00 L 15.00 64.00 L 11.00 67.00 L 11.00 74.00 L 20.00 73.00 L 21.00 72.00 L 27.00 72.00 L 28.00 73.00 L 37.00 74.00 L 48.00 80.00 L 57.00 89.00 L 62.00 98.00 L 64.00 104.00 L 64.00 110.00 L 65.00 111.00 L 64.00 122.00 L 62.00 128.00 L 58.00 135.00 L 60.00 136.00 L 67.00 136.00 L 71.00 127.00 L 72.00 118.00 L 73.00 117.00 L 73.00 109.00 L 72.00 108.00 L 71.00 99.00 L 65.00 86.00 L 62.00 82.00 L 52.00 73.00 L 53.00 58.00 L 52.00 57.00 L 51.00 49.00 L 46.00 39.00 L 36.00 29.00 Z" fill="#DADCED" fill-rule="evenodd"/>
  <path d="M 85.00 112.00 L 82.00 115.00 L 82.00 117.00 L 83.00 118.00 L 86.00 132.00 L 88.00 134.00 L 93.00 134.00 L 96.00 131.00 L 96.00 128.00 L 94.00 125.00 L 94.00 123.00 L 90.00 114.00 L 88.00 112.00 Z M 107.00 96.00 L 104.00 99.00 L 104.00 102.00 L 118.00 114.00 L 121.00 114.00 L 123.00 112.00 L 125.00 107.00 L 122.00 104.00 L 116.00 101.00 L 111.00 97.00 Z M 135.00 72.00 L 133.00 70.00 L 115.00 71.00 L 113.00 72.00 L 112.00 76.00 L 114.00 79.00 L 133.00 80.00 L 135.00 78.00 Z M 68.00 44.00 L 67.00 45.00 L 61.00 46.00 L 58.00 48.00 L 59.00 57.00 L 60.00 58.00 L 60.00 67.00 L 59.00 70.00 L 60.00 70.00 L 66.00 76.00 L 72.00 84.00 L 76.00 92.00 L 78.00 98.00 L 78.00 101.00 L 79.00 102.00 L 79.00 105.00 L 81.00 105.00 L 93.00 99.00 L 101.00 89.00 L 101.00 87.00 L 103.00 84.00 L 103.00 80.00 L 104.00 79.00 L 103.00 66.00 L 98.00 56.00 L 89.00 48.00 L 78.00 44.00 Z M 121.00 36.00 L 118.00 36.00 L 104.00 48.00 L 104.00 51.00 L 107.00 54.00 L 113.00 52.00 L 125.00 43.00 L 124.00 39.00 Z M 93.00 16.00 L 88.00 16.00 L 86.00 18.00 L 86.00 21.00 L 82.00 33.00 L 82.00 35.00 L 85.00 38.00 L 88.00 38.00 L 90.00 36.00 L 94.00 27.00 L 94.00 25.00 L 96.00 22.00 L 96.00 18.00 Z M 56.00 15.00 L 51.00 17.00 L 50.00 21.00 L 56.00 36.00 L 58.00 38.00 L 60.00 38.00 L 64.00 35.00 L 64.00 32.00 L 63.00 31.00 L 63.00 28.00 L 62.00 27.00 L 62.00 24.00 L 59.00 16.00 Z" fill="#FFA600" fill-rule="evenodd"/>
  <path d="M 449.00 44.00 L 440.00 44.00 L 427.00 49.00 L 418.00 57.00 L 414.00 64.00 L 413.00 70.00 L 412.00 71.00 L 412.00 125.00 L 417.00 129.00 L 423.00 129.00 L 425.00 128.00 L 428.00 124.00 L 428.00 76.00 L 429.00 75.00 L 430.00 69.00 L 433.00 65.00 L 441.00 60.00 L 448.00 60.00 L 451.00 59.00 L 454.00 56.00 L 455.00 53.00 L 454.00 48.00 Z M 310.00 45.00 L 308.00 44.00 L 302.00 44.00 L 299.00 46.00 L 274.00 104.00 L 273.00 104.00 L 271.00 101.00 L 271.00 99.00 L 266.00 90.00 L 266.00 88.00 L 257.00 70.00 L 257.00 68.00 L 253.00 61.00 L 253.00 59.00 L 249.00 52.00 L 248.00 48.00 L 243.00 44.00 L 238.00 44.00 L 234.00 46.00 L 232.00 49.00 L 232.00 55.00 L 236.00 62.00 L 236.00 64.00 L 241.00 73.00 L 241.00 75.00 L 247.00 86.00 L 247.00 88.00 L 252.00 97.00 L 252.00 99.00 L 264.00 124.00 L 263.00 128.00 L 257.00 134.00 L 252.00 136.00 L 244.00 136.00 L 241.00 139.00 L 240.00 141.00 L 240.00 146.00 L 244.00 151.00 L 247.00 152.00 L 255.00 152.00 L 256.00 151.00 L 262.00 150.00 L 269.00 146.00 L 277.00 136.00 L 284.00 122.00 L 284.00 120.00 L 288.00 113.00 L 288.00 111.00 L 292.00 104.00 L 292.00 102.00 L 295.00 97.00 L 295.00 95.00 L 299.00 88.00 L 299.00 86.00 L 302.00 81.00 L 302.00 79.00 L 313.00 55.00 L 313.00 49.00 Z M 497.00 43.00 L 496.00 44.00 L 490.00 45.00 L 479.00 51.00 L 468.00 63.00 L 464.00 71.00 L 463.00 77.00 L 462.00 78.00 L 462.00 94.00 L 463.00 95.00 L 463.00 99.00 L 469.00 112.00 L 476.00 120.00 L 483.00 125.00 L 496.00 130.00 L 503.00 130.00 L 504.00 131.00 L 515.00 130.00 L 516.00 129.00 L 522.00 128.00 L 533.00 122.00 L 541.00 114.00 L 545.00 108.00 L 546.00 104.00 L 548.00 101.00 L 549.00 93.00 L 550.00 92.00 L 550.00 81.00 L 549.00 80.00 L 549.00 76.00 L 543.00 62.00 L 540.00 58.00 L 530.00 49.00 L 515.00 43.00 Z M 501.00 58.00 L 511.00 58.00 L 517.00 60.00 L 522.00 63.00 L 530.00 72.00 L 533.00 80.00 L 533.00 93.00 L 530.00 101.00 L 522.00 110.00 L 515.00 114.00 L 512.00 114.00 L 511.00 115.00 L 500.00 115.00 L 494.00 113.00 L 488.00 109.00 L 481.00 100.00 L 479.00 95.00 L 479.00 91.00 L 478.00 90.00 L 479.00 78.00 L 483.00 70.00 L 491.00 62.00 Z M 357.00 43.00 L 356.00 44.00 L 350.00 44.00 L 338.00 49.00 L 327.00 59.00 L 320.00 73.00 L 320.00 77.00 L 319.00 78.00 L 319.00 95.00 L 320.00 96.00 L 321.00 103.00 L 326.00 113.00 L 332.00 120.00 L 336.00 123.00 L 350.00 129.00 L 364.00 130.00 L 365.00 129.00 L 375.00 128.00 L 385.00 124.00 L 390.00 118.00 L 390.00 114.00 L 389.00 112.00 L 384.00 108.00 L 380.00 108.00 L 368.00 114.00 L 363.00 114.00 L 362.00 115.00 L 353.00 114.00 L 347.00 111.00 L 342.00 107.00 L 339.00 103.00 L 337.00 97.00 L 340.00 95.00 L 345.00 95.00 L 346.00 94.00 L 350.00 94.00 L 351.00 93.00 L 355.00 93.00 L 356.00 92.00 L 360.00 92.00 L 361.00 91.00 L 365.00 91.00 L 366.00 90.00 L 370.00 90.00 L 371.00 89.00 L 375.00 89.00 L 376.00 88.00 L 380.00 88.00 L 381.00 87.00 L 385.00 87.00 L 386.00 86.00 L 392.00 85.00 L 397.00 80.00 L 397.00 77.00 L 398.00 76.00 L 397.00 75.00 L 397.00 71.00 L 395.00 65.00 L 387.00 54.00 L 382.00 50.00 L 372.00 45.00 L 363.00 44.00 L 362.00 43.00 Z M 379.00 70.00 L 378.00 73.00 L 375.00 73.00 L 374.00 74.00 L 370.00 74.00 L 369.00 75.00 L 365.00 75.00 L 364.00 76.00 L 360.00 76.00 L 359.00 77.00 L 355.00 77.00 L 354.00 78.00 L 350.00 78.00 L 344.00 80.00 L 339.00 80.00 L 338.00 81.00 L 336.00 80.00 L 336.00 76.00 L 340.00 68.00 L 346.00 62.00 L 352.00 59.00 L 357.00 59.00 L 358.00 58.00 L 366.00 59.00 L 372.00 62.00 Z M 165.00 12.00 L 161.00 17.00 L 161.00 123.00 L 163.00 127.00 L 167.00 129.00 L 172.00 129.00 L 177.00 125.00 L 178.00 122.00 L 178.00 91.00 L 179.00 90.00 L 186.00 91.00 L 198.00 98.00 L 208.00 109.00 L 213.00 118.00 L 215.00 125.00 L 218.00 128.00 L 220.00 129.00 L 225.00 129.00 L 229.00 127.00 L 231.00 124.00 L 231.00 117.00 L 224.00 102.00 L 213.00 89.00 L 198.00 79.00 L 198.00 77.00 L 219.00 58.00 L 221.00 54.00 L 221.00 50.00 L 220.00 48.00 L 215.00 44.00 L 210.00 44.00 L 208.00 45.00 L 180.00 72.00 L 178.00 71.00 L 178.00 18.00 L 177.00 15.00 L 174.00 12.00 L 171.00 11.00 L 167.00 11.00 Z" fill="#303047" fill-rule="evenodd"/>
</svg>