<?xml version="1.0" encoding="UTF-8" standalone="no"?>
<svg xmlns="http://www.w3.org/2000/svg" width="639" height="236" viewBox="0 0 639 236" version="1.1">
  <g fill="#FFFFFF" fill-rule="evenodd" stroke="none">
    <path d="M 385 188 L 375 188 L 374 189 L 372 189 L 371 190 L 370 190 L 366 194 L 366 195 L 364 197 L 364 198 L 363 199 L 363 201 L 362 202 L 362 205 L 361 206 L 361 212 L 362 213 L 362 217 L 363 218 L 363 219 L 364 220 L 365 223 L 369 227 L 370 227 L 373 229 L 376 229 L 377 230 L 379 230 L 380 229 L 384 229 L 385 228 L 388 227 L 394 221 L 394 220 L 396 218 L 396 216 L 397 215 L 396 215 L 394 217 L 394 218 L 390 222 L 389 222 L 386 224 L 379 224 L 378 223 L 376 223 L 370 217 L 370 216 L 368 213 L 368 210 L 367 209 L 367 204 L 368 203 L 395 203 L 395 199 L 394 198 L 394 196 L 393 195 L 393 194 L 389 190 L 388 190 Z M 367 200 L 368 199 L 368 197 L 369 196 L 369 195 L 374 190 L 380 190 L 381 191 L 382 191 L 385 194 L 385 195 L 386 196 L 386 198 L 387 199 L 387 200 L 386 201 L 368 201 Z M 319 188 L 320 189 L 321 189 L 324 192 L 324 193 L 325 194 L 325 195 L 328 200 L 328 202 L 330 205 L 330 207 L 333 212 L 333 214 L 335 217 L 335 219 L 337 222 L 337 224 L 340 229 L 343 224 L 343 222 L 345 219 L 345 217 L 347 214 L 347 212 L 349 209 L 349 207 L 351 204 L 351 202 L 353 199 L 353 197 L 354 196 L 354 195 L 355 194 L 356 191 L 358 189 L 359 189 L 360 188 L 348 188 L 349 189 L 351 189 L 352 190 L 352 195 L 350 198 L 350 200 L 348 203 L 348 205 L 346 208 L 346 210 L 344 213 L 344 215 L 342 217 L 340 214 L 340 212 L 338 209 L 338 207 L 335 202 L 335 200 L 334 199 L 334 198 L 333 197 L 333 195 L 332 194 L 332 190 L 333 189 L 336 188 Z M 289 190 L 287 192 L 287 193 L 285 196 L 285 197 L 287 200 L 291 200 L 292 199 L 292 192 L 295 189 L 297 189 L 298 188 L 300 188 L 301 189 L 303 189 L 306 192 L 306 202 L 303 204 L 301 204 L 298 206 L 296 206 L 295 207 L 292 208 L 290 210 L 289 210 L 285 214 L 285 215 L 284 216 L 284 224 L 286 226 L 286 227 L 287 227 L 290 229 L 296 229 L 297 228 L 298 228 L 299 227 L 302 226 L 305 223 L 306 223 L 307 224 L 307 226 L 308 227 L 308 228 L 309 228 L 310 229 L 314 229 L 315 228 L 318 227 L 320 224 L 319 224 L 318 225 L 315 225 L 313 223 L 313 197 L 312 196 L 312 194 L 311 193 L 311 192 L 308 189 L 307 189 L 306 188 L 304 188 L 303 187 L 296 187 L 295 188 L 293 188 L 292 189 Z M 305 204 L 306 205 L 306 221 L 304 223 L 303 223 L 302 224 L 300 224 L 299 225 L 296 225 L 295 224 L 294 224 L 291 221 L 291 218 L 290 217 L 291 216 L 291 214 L 292 213 L 292 212 L 296 208 L 297 208 L 298 207 L 299 207 L 300 206 L 301 206 L 302 205 Z M 278 188 L 276 188 L 275 187 L 274 187 L 273 188 L 271 188 L 264 195 L 263 194 L 263 187 L 260 189 L 258 189 L 257 190 L 255 190 L 252 192 L 250 192 L 250 193 L 251 193 L 252 192 L 253 193 L 254 193 L 256 195 L 256 198 L 257 199 L 257 223 L 256 224 L 256 225 L 254 227 L 253 227 L 252 228 L 250 228 L 250 229 L 271 229 L 271 228 L 268 228 L 267 227 L 266 227 L 264 225 L 264 224 L 263 223 L 263 199 L 264 198 L 264 197 L 268 193 L 269 193 L 270 192 L 271 193 L 272 193 L 274 195 L 278 195 L 279 194 L 279 190 L 278 189 Z M 233 177 L 233 178 L 230 181 L 230 182 L 222 190 L 223 191 L 226 191 L 227 192 L 227 222 L 228 223 L 228 225 L 229 226 L 229 227 L 231 229 L 238 229 L 239 228 L 242 227 L 244 225 L 244 224 L 245 223 L 244 223 L 242 225 L 237 225 L 234 222 L 234 192 L 235 191 L 242 191 L 243 190 L 243 189 L 242 188 L 235 188 L 234 187 L 234 177 Z M 416 167 L 414 167 L 413 168 L 411 168 L 410 169 L 407 169 L 406 170 L 404 170 L 403 171 L 402 171 L 406 171 L 409 174 L 409 224 L 405 228 L 402 228 L 402 229 L 422 229 L 422 228 L 419 228 L 416 225 Z M 177 52 L 174 52 L 173 53 L 172 53 L 171 54 L 169 54 L 166 56 L 164 56 L 163 57 L 161 57 L 160 58 L 158 58 L 157 59 L 155 59 L 154 60 L 152 60 L 151 61 L 149 61 L 148 62 L 146 62 L 145 63 L 145 65 L 146 65 L 147 64 L 150 64 L 151 63 L 155 63 L 156 64 L 157 64 L 159 66 L 159 67 L 160 68 L 160 72 L 161 73 L 161 130 L 160 131 L 160 136 L 159 137 L 159 139 L 157 141 L 156 141 L 153 143 L 149 143 L 148 144 L 144 144 L 144 146 L 192 146 L 192 144 L 188 144 L 187 143 L 185 143 L 184 142 L 182 142 L 179 139 L 179 138 L 178 137 L 178 134 L 177 133 Z M 607 52 L 601 52 L 600 51 L 597 51 L 596 52 L 589 52 L 588 53 L 586 53 L 585 54 L 583 54 L 582 55 L 581 55 L 580 56 L 577 57 L 575 59 L 574 59 L 567 66 L 567 67 L 563 72 L 563 73 L 562 74 L 562 75 L 559 80 L 559 82 L 558 83 L 558 85 L 557 86 L 557 90 L 556 91 L 556 112 L 557 113 L 557 116 L 558 117 L 558 120 L 560 123 L 560 125 L 561 126 L 562 129 L 566 134 L 566 135 L 573 142 L 574 142 L 576 144 L 577 144 L 580 146 L 582 146 L 583 147 L 585 147 L 586 148 L 603 148 L 604 147 L 607 147 L 608 146 L 610 146 L 611 145 L 612 145 L 613 144 L 616 143 L 618 141 L 619 141 L 629 131 L 629 130 L 632 127 L 633 124 L 635 122 L 635 121 L 636 120 L 636 118 L 638 115 L 638 114 L 636 114 L 635 113 L 635 114 L 633 116 L 633 117 L 630 120 L 630 121 L 622 129 L 621 129 L 619 131 L 618 131 L 615 133 L 613 133 L 612 134 L 607 134 L 606 135 L 601 135 L 600 134 L 596 134 L 595 133 L 593 133 L 592 132 L 589 131 L 587 129 L 586 129 L 578 121 L 577 118 L 575 116 L 575 114 L 574 113 L 574 112 L 573 111 L 573 109 L 572 108 L 572 105 L 571 104 L 571 99 L 570 98 L 570 89 L 571 88 L 634 88 L 634 82 L 633 81 L 633 77 L 632 76 L 632 74 L 630 71 L 630 69 L 628 67 L 628 66 L 620 58 L 619 58 L 617 56 L 616 56 L 613 54 L 611 54 L 610 53 L 608 53 Z M 570 81 L 571 80 L 571 77 L 572 76 L 572 74 L 573 73 L 573 71 L 575 69 L 576 66 L 581 61 L 582 61 L 585 59 L 587 59 L 588 58 L 598 58 L 599 59 L 601 59 L 602 60 L 603 60 L 608 64 L 608 65 L 610 67 L 610 68 L 611 69 L 611 71 L 612 72 L 612 75 L 613 76 L 613 80 L 614 81 L 614 82 L 613 83 L 571 83 L 570 82 Z M 204 61 L 204 63 L 211 63 L 212 64 L 215 65 L 216 66 L 216 67 L 217 68 L 217 70 L 218 71 L 218 133 L 217 134 L 217 137 L 216 138 L 216 139 L 213 142 L 212 142 L 211 143 L 208 143 L 207 144 L 205 144 L 205 146 L 248 146 L 248 144 L 244 144 L 243 143 L 241 143 L 240 142 L 239 142 L 236 139 L 236 137 L 235 136 L 235 74 L 241 68 L 242 68 L 245 65 L 246 65 L 249 63 L 251 63 L 252 62 L 261 62 L 262 63 L 264 63 L 269 68 L 269 69 L 270 70 L 270 72 L 271 73 L 271 76 L 272 77 L 272 133 L 271 134 L 271 137 L 266 142 L 265 142 L 264 143 L 262 143 L 261 144 L 259 144 L 259 146 L 301 146 L 301 144 L 297 144 L 296 143 L 293 142 L 290 139 L 290 138 L 289 137 L 289 133 L 288 132 L 288 73 L 287 72 L 287 69 L 286 68 L 286 66 L 285 65 L 285 64 L 284 63 L 283 60 L 278 55 L 277 55 L 275 53 L 273 53 L 272 52 L 269 52 L 268 51 L 262 51 L 261 52 L 257 52 L 256 53 L 254 53 L 253 54 L 252 54 L 250 56 L 247 57 L 244 60 L 243 60 L 237 66 L 236 66 L 235 67 L 234 66 L 234 52 L 233 51 L 232 52 L 230 52 L 229 53 L 227 53 L 226 54 L 224 54 L 223 55 L 221 55 L 220 56 L 218 56 L 217 57 L 215 57 L 214 58 L 212 58 L 211 59 L 209 59 L 208 60 L 206 60 L 205 61 Z M 385 56 L 377 64 L 377 65 L 375 68 L 375 70 L 374 71 L 374 74 L 375 75 L 375 77 L 379 81 L 381 81 L 382 82 L 385 82 L 386 81 L 388 81 L 391 78 L 391 75 L 392 74 L 392 72 L 391 71 L 391 62 L 392 61 L 392 60 L 397 56 L 399 56 L 400 55 L 404 55 L 405 54 L 407 54 L 408 55 L 413 55 L 414 56 L 415 56 L 417 58 L 418 58 L 419 59 L 419 60 L 421 62 L 421 64 L 422 65 L 422 71 L 423 72 L 423 84 L 421 86 L 420 86 L 419 87 L 417 87 L 414 89 L 412 89 L 409 91 L 407 91 L 404 93 L 402 93 L 401 94 L 400 94 L 399 95 L 398 95 L 393 98 L 391 98 L 389 100 L 388 100 L 387 101 L 386 101 L 384 103 L 383 103 L 375 111 L 375 112 L 374 113 L 374 114 L 371 119 L 371 132 L 372 133 L 372 135 L 373 136 L 373 137 L 375 139 L 375 140 L 378 143 L 379 143 L 381 145 L 382 145 L 383 146 L 385 146 L 386 147 L 398 147 L 399 146 L 401 146 L 402 145 L 404 145 L 405 144 L 406 144 L 408 142 L 411 141 L 413 139 L 414 139 L 417 136 L 418 136 L 422 132 L 423 133 L 423 136 L 424 137 L 424 139 L 425 140 L 426 143 L 429 146 L 431 146 L 432 147 L 440 147 L 441 146 L 443 146 L 444 145 L 447 144 L 450 141 L 451 141 L 453 139 L 453 138 L 454 137 L 454 133 L 453 133 L 450 136 L 449 136 L 448 137 L 443 137 L 440 134 L 440 133 L 439 132 L 439 124 L 438 123 L 438 72 L 437 71 L 437 68 L 436 67 L 436 65 L 435 64 L 434 61 L 428 55 L 427 55 L 422 52 L 419 52 L 418 51 L 412 51 L 411 50 L 405 50 L 404 51 L 397 51 L 396 52 L 393 52 L 392 53 L 391 53 L 390 54 L 389 54 L 388 55 Z M 422 90 L 423 91 L 423 123 L 422 124 L 422 126 L 421 127 L 421 128 L 417 132 L 416 132 L 411 135 L 409 135 L 408 136 L 399 136 L 398 135 L 395 134 L 390 129 L 390 128 L 388 125 L 388 114 L 389 113 L 390 110 L 392 108 L 392 107 L 398 101 L 399 101 L 404 97 L 405 97 L 406 96 L 407 96 L 412 93 L 414 93 L 417 91 L 419 91 L 420 90 Z M 552 52 L 551 52 L 550 51 L 546 51 L 545 50 L 539 50 L 538 49 L 527 49 L 526 50 L 520 50 L 519 51 L 516 51 L 515 52 L 513 52 L 510 54 L 508 54 L 507 55 L 506 55 L 504 57 L 503 57 L 501 59 L 500 59 L 497 62 L 496 62 L 481 77 L 481 78 L 478 81 L 478 82 L 476 84 L 476 85 L 475 86 L 475 87 L 474 88 L 474 89 L 473 90 L 473 91 L 470 96 L 470 98 L 469 99 L 469 101 L 468 102 L 468 105 L 467 106 L 467 109 L 466 110 L 466 116 L 465 117 L 465 135 L 466 136 L 466 139 L 467 140 L 467 141 L 468 142 L 469 145 L 471 147 L 471 148 L 465 154 L 464 154 L 461 157 L 461 158 L 452 167 L 452 168 L 448 172 L 448 173 L 446 175 L 445 178 L 443 180 L 443 181 L 442 182 L 442 184 L 441 185 L 441 187 L 440 188 L 440 190 L 439 191 L 439 196 L 438 197 L 438 209 L 439 210 L 439 213 L 440 214 L 440 216 L 441 217 L 441 219 L 442 220 L 442 221 L 445 224 L 445 225 L 447 227 L 448 227 L 451 230 L 452 230 L 455 232 L 457 232 L 458 233 L 460 233 L 461 234 L 466 234 L 467 235 L 479 235 L 480 234 L 485 234 L 486 233 L 488 233 L 489 232 L 491 232 L 492 231 L 493 231 L 494 230 L 495 230 L 496 229 L 497 229 L 498 228 L 501 227 L 503 225 L 504 225 L 506 223 L 507 223 L 511 219 L 512 219 L 521 210 L 521 209 L 525 205 L 525 204 L 528 201 L 528 200 L 530 198 L 530 197 L 531 196 L 531 195 L 532 194 L 532 193 L 535 188 L 535 185 L 536 184 L 536 182 L 537 181 L 537 178 L 538 177 L 538 173 L 539 172 L 539 166 L 540 165 L 540 158 L 541 157 L 541 147 L 542 146 L 542 131 L 543 130 L 543 117 L 544 116 L 544 105 L 545 104 L 545 95 L 546 94 L 546 86 L 547 85 L 547 77 L 548 76 L 548 69 L 549 68 L 549 63 L 550 62 L 550 58 L 551 57 L 551 53 Z M 530 107 L 531 108 L 531 110 L 530 111 L 530 122 L 529 123 L 529 133 L 528 134 L 528 144 L 527 145 L 527 155 L 526 156 L 526 165 L 525 166 L 525 174 L 524 175 L 524 182 L 523 183 L 523 188 L 522 189 L 522 192 L 521 193 L 521 195 L 520 196 L 520 198 L 518 201 L 518 203 L 516 205 L 515 208 L 512 211 L 512 212 L 508 216 L 507 216 L 504 219 L 503 219 L 501 221 L 500 221 L 497 223 L 495 223 L 494 224 L 487 224 L 486 225 L 485 224 L 477 224 L 476 223 L 473 223 L 472 222 L 470 222 L 469 221 L 468 221 L 467 220 L 464 219 L 455 210 L 455 209 L 453 206 L 453 203 L 452 202 L 452 187 L 453 186 L 453 183 L 454 182 L 454 180 L 455 179 L 455 178 L 456 177 L 456 176 L 457 175 L 457 174 L 458 173 L 458 172 L 459 171 L 460 168 L 462 166 L 462 165 L 464 163 L 464 162 L 467 159 L 467 158 L 476 149 L 485 149 L 486 148 L 488 148 L 489 147 L 491 147 L 492 146 L 495 145 L 500 141 L 501 141 L 509 133 L 509 132 L 515 126 L 515 125 L 523 116 L 523 115 L 526 112 L 526 111 Z M 533 63 L 535 65 L 535 70 L 534 71 L 534 77 L 533 78 L 533 82 L 532 83 L 532 86 L 531 87 L 531 90 L 530 91 L 530 93 L 529 94 L 529 96 L 528 97 L 528 99 L 527 100 L 527 101 L 526 102 L 526 103 L 525 104 L 524 107 L 522 109 L 522 110 L 519 113 L 519 114 L 506 127 L 505 127 L 502 130 L 501 130 L 499 132 L 498 132 L 497 133 L 496 133 L 491 136 L 487 136 L 486 135 L 485 135 L 484 134 L 484 133 L 482 130 L 482 128 L 481 127 L 481 104 L 482 103 L 482 97 L 483 96 L 483 93 L 484 92 L 484 90 L 485 89 L 485 87 L 486 86 L 486 85 L 487 84 L 487 83 L 488 82 L 488 81 L 489 80 L 490 77 L 492 75 L 492 74 L 503 63 L 504 63 L 506 61 L 507 61 L 510 59 L 514 59 L 515 58 L 516 59 L 523 59 L 524 60 L 527 60 L 528 61 L 529 61 L 530 62 Z M 331 27 L 331 28 L 328 31 L 328 32 L 325 35 L 325 36 L 322 39 L 322 40 L 319 43 L 319 44 L 310 53 L 309 53 L 304 58 L 304 59 L 305 60 L 315 60 L 316 61 L 316 126 L 317 127 L 317 133 L 318 134 L 318 137 L 319 138 L 320 141 L 324 145 L 325 145 L 328 147 L 330 147 L 331 148 L 337 148 L 338 147 L 341 147 L 342 146 L 344 146 L 345 145 L 348 144 L 357 135 L 358 132 L 357 131 L 356 131 L 352 135 L 351 135 L 349 137 L 346 137 L 345 138 L 343 138 L 342 137 L 340 137 L 339 136 L 338 136 L 335 133 L 335 132 L 333 129 L 333 122 L 332 121 L 332 100 L 333 99 L 333 61 L 334 60 L 353 60 L 353 53 L 334 53 L 333 52 L 333 27 Z M 164 5 L 163 6 L 162 6 L 158 10 L 158 12 L 157 13 L 157 17 L 158 18 L 158 20 L 162 24 L 164 24 L 165 25 L 169 25 L 170 24 L 172 24 L 176 20 L 176 19 L 177 18 L 177 12 L 176 11 L 175 8 L 174 7 L 173 7 L 171 5 Z M 135 0 L 123 12 L 123 13 L 117 19 L 117 20 L 118 20 L 122 24 L 122 25 L 124 27 L 124 28 L 125 29 L 125 37 L 124 38 L 124 41 L 123 42 L 123 44 L 122 45 L 122 47 L 121 48 L 121 50 L 120 51 L 120 53 L 118 56 L 118 58 L 117 59 L 117 60 L 116 61 L 116 62 L 115 63 L 115 64 L 114 65 L 114 66 L 113 67 L 113 68 L 112 69 L 112 70 L 111 71 L 111 72 L 110 73 L 110 74 L 109 75 L 109 76 L 108 77 L 107 80 L 105 82 L 105 83 L 104 84 L 104 85 L 102 87 L 101 90 L 99 92 L 99 93 L 97 95 L 97 96 L 95 98 L 95 99 L 93 101 L 93 102 L 91 104 L 91 105 L 89 107 L 89 108 L 87 110 L 87 111 L 83 116 L 82 116 L 81 115 L 81 112 L 80 111 L 80 107 L 79 106 L 79 102 L 78 101 L 78 97 L 77 96 L 77 92 L 76 91 L 76 88 L 75 87 L 75 83 L 74 82 L 74 79 L 73 78 L 73 74 L 72 73 L 72 70 L 71 69 L 71 66 L 70 65 L 70 62 L 69 61 L 69 58 L 68 57 L 68 54 L 67 53 L 67 50 L 66 49 L 66 47 L 65 46 L 65 44 L 64 43 L 64 41 L 63 40 L 63 38 L 62 37 L 62 35 L 60 32 L 60 30 L 59 29 L 59 28 L 58 27 L 58 26 L 57 25 L 57 24 L 56 23 L 55 20 L 53 18 L 53 17 L 51 15 L 51 14 L 48 11 L 48 10 L 43 5 L 42 5 L 40 3 L 39 3 L 36 1 L 33 1 L 32 0 L 29 0 L 28 1 L 25 1 L 24 2 L 21 3 L 19 5 L 18 5 L 11 12 L 11 13 L 7 18 L 6 21 L 4 23 L 4 25 L 3 26 L 3 28 L 2 29 L 2 31 L 1 32 L 1 35 L 0 36 L 0 40 L 3 43 L 4 43 L 4 40 L 5 39 L 5 37 L 7 34 L 7 32 L 8 31 L 9 28 L 16 21 L 17 21 L 18 20 L 22 20 L 23 21 L 24 21 L 29 26 L 29 27 L 33 32 L 33 33 L 36 38 L 36 40 L 39 45 L 39 47 L 41 50 L 41 52 L 42 53 L 42 55 L 44 58 L 44 60 L 45 61 L 45 63 L 46 64 L 46 66 L 47 67 L 47 69 L 48 70 L 48 73 L 49 74 L 49 77 L 50 78 L 50 81 L 51 82 L 51 85 L 52 86 L 52 89 L 53 90 L 53 94 L 54 95 L 54 99 L 55 100 L 55 104 L 56 105 L 56 110 L 57 111 L 57 115 L 58 116 L 58 121 L 59 122 L 59 127 L 60 128 L 60 133 L 61 134 L 61 139 L 62 140 L 62 145 L 63 146 L 63 150 L 67 146 L 68 146 L 86 128 L 86 127 L 90 122 L 91 119 L 93 117 L 93 116 L 95 114 L 95 113 L 99 108 L 100 105 L 104 100 L 105 97 L 107 95 L 108 92 L 110 90 L 111 87 L 113 85 L 113 84 L 114 83 L 114 82 L 116 80 L 117 77 L 119 75 L 119 74 L 120 73 L 121 70 L 123 68 L 123 67 L 124 66 L 125 63 L 127 61 L 127 60 L 128 59 L 128 58 L 129 57 L 130 54 L 132 52 L 132 51 L 133 50 L 133 49 L 134 48 L 134 47 L 135 46 L 135 45 L 136 44 L 136 43 L 137 42 L 137 41 L 138 40 L 138 39 L 141 34 L 141 32 L 144 27 L 144 25 L 145 24 L 145 21 L 146 20 L 146 13 L 145 12 L 145 10 L 144 9 L 144 8 L 137 1 L 136 1 Z"/>
  </g>
</svg>
